<svg id="logo" xmlns="http://www.w3.org/2000/svg" xmlns:xlink="http://www.w3.org/1999/xlink" viewBox="0 0 452.045 49.805">
    <defs>
        <style>
        .cls-1 {
            fill: #4b4b4b;
        }

        .cls-2,
        .cls-3 {
            fill-rule: evenodd;
        }

        .cls-2 {
            fill: url(#linear-gradient);
        }

        .cls-3 {
            fill: #ff9800;
        }
        </style>
        <linearGradient id="linear-gradient" y1="-1.076" x2="0.028" y2="-1.076" gradientUnits="objectBoundingBox">
            <stop offset="0" stop-color="#ff9700" />
            <stop offset="0.53" stop-color="#f48e00" />
            <stop offset="1" stop-color="#ce6e00" />
        </linearGradient>
    </defs>
    <g id="Group_1" data-name="Group 1">
        <path id="Path_1" data-name="Path 1" class="cls-1" d="M72,45.582V34.67h5.29L78.5,40.262a1.755,1.755,0,0,0,.317.816,2.067,2.067,0,0,0,.741.423,22.5,22.5,0,0,0,6.136.907h.181q9.219,0,9.219-6.982a6.668,6.668,0,0,0-.68-3.1,5.447,5.447,0,0,0-2.131-2.176,18.966,18.966,0,0,0-2.72-1.36,34.972,34.972,0,0,0-3.507-1.1,34.549,34.549,0,0,1-8.282-3.235Q73,21.311,73,14.751q0-6.5,4.429-9.809t11.561-3.31A32.552,32.552,0,0,1,100.927,3.9V15.053l-5.32-.484L94.73,9.431a1.655,1.655,0,0,0-.6-1.179,11.156,11.156,0,0,0-5.471-1q-4.142,0-6.3,1.708a5.7,5.7,0,0,0-2.162,4.731,5.46,5.46,0,0,0,.56,2.478,6.859,6.859,0,0,0,1.239,1.8,7.71,7.71,0,0,0,2.1,1.36,22.575,22.575,0,0,0,2.4,1.013q.982.332,2.856.906,2.479.756,3.748,1.209a25.811,25.811,0,0,1,3.34,1.572,10.878,10.878,0,0,1,3.129,2.358,11.837,11.837,0,0,1,1.889,3.34,12.854,12.854,0,0,1,.831,4.761q0,6.921-4.67,10.216T85.511,48a39.882,39.882,0,0,1-7.783-.771A26.109,26.109,0,0,1,72,45.582Z" />
        <path id="Path_2" data-name="Path 2" class="cls-1" d="M106.1,19.254l.574-4.02h10.7V35.909a10.45,10.45,0,0,0,.847,4.867q.846,1.51,3.294,1.511,4.383,0,8.615-4.322V21.37a2.143,2.143,0,0,0-.151-1q-.151-.241-.847-.363l-2.962-.756.544-4.02h10.549V41.622q0,1.119.786,1.239l3.235.424v3.959h-9.794l-.544-3.778-.181-.06Q125.017,48,119.184,48q-4.9,0-6.907-2.509t-2.01-8.04V21.37a1.972,1.972,0,0,0-.166-1,1.3,1.3,0,0,0-.831-.363l-3.174-.756Z" />
        <path id="Path_3" data-name="Path 3" class="cls-1" d="M144.06,4.474l.6-3.96h10.791V17.955a19,19,0,0,1,10.126-3.325h.091a10.667,10.667,0,0,1,8.629,3.808q3.189,3.808,3.189,11.789,0,9.158-3.506,13.466A11.793,11.793,0,0,1,164.312,48a12.6,12.6,0,0,1-9.249-3.657h-.242l-.363,2.9H147.6a49.423,49.423,0,0,0,.786-8.614V6.952a1.184,1.184,0,0,0-.786-1.3L144.06,4.474ZM155.516,38.69q3.778,3.537,7.678,3.537,6.923,0,6.922-11.577,0-4.958-1.708-7.587a5.4,5.4,0,0,0-4.791-2.63q-3.778,0-8.1,3.053Z" />
        <path id="Path_4" data-name="Path 4" class="cls-1" d="M181.783,47.244v-3.9l3.537-.484a1.124,1.124,0,0,0,.8-.317,1.583,1.583,0,0,0,.2-.922V6.952a1.183,1.183,0,0,0-.816-1.3l-3.536-1.178L182.6.514h10.822V41.622a1.789,1.789,0,0,0,.166.967,1.245,1.245,0,0,0,.831.272l3.476.424v3.959H181.783Z" />
        <path id="Path_5" data-name="Path 5" class="cls-1" d="M201.463,47.244v-3.9l3.718-.484a1.124,1.124,0,0,0,.8-.317,1.582,1.582,0,0,0,.2-.922V21.673a1.181,1.181,0,0,0-.816-1.3l-3.416-1.179.635-3.96h10.7V41.622a1.8,1.8,0,0,0,.166.967,1.246,1.246,0,0,0,.832.272l3.657.424v3.959H201.463ZM204.3,4.534a4.472,4.472,0,0,1,1.209-3.355,5.58,5.58,0,0,1,6.861,0,4.407,4.407,0,0,1,1.24,3.355,4.542,4.542,0,0,1-1.24,3.431,5.525,5.525,0,0,1-6.861,0A4.61,4.61,0,0,1,204.3,4.534Z" />
        <path id="Path_6" data-name="Path 6" class="cls-1" d="M221,19.194l.635-3.96h9.158l.484,3.476.272.061q5.44-4.141,10.579-4.141,5.261,0,7.376,3.718,5.742-3.719,10.76-3.718,4.9,0,7,2.72t2.1,7.859V41.622a1.941,1.941,0,0,0,.151.967q.152.211.846.272l3.386.424v3.959H258.028v-3.9l3.234-.423q1-.122.967-1.239V27.113a11.916,11.916,0,0,0-.771-4.821,3.088,3.088,0,0,0-3.128-1.677,13.836,13.836,0,0,0-7.587,2.478,21.172,21.172,0,0,1,.242,3.476V41.622a1.941,1.941,0,0,0,.151.967q.151.211.816.272l2.872.424v3.959H239.589v-3.9l3.265-.423a1.048,1.048,0,0,0,.8-.348,1.6,1.6,0,0,0,.2-.891V27.446q0-1.662-.09-2.66a10.453,10.453,0,0,0-.423-2.086,2.783,2.783,0,0,0-1.179-1.617,3.985,3.985,0,0,0-2.146-.529q-3.658,0-7.678,3.174V41.622a1.789,1.789,0,0,0,.166.967,1.245,1.245,0,0,0,.831.272l3.023.424v3.959H221.272v-3.9l2.962-.484a1.124,1.124,0,0,0,.8-.317,1.582,1.582,0,0,0,.2-.922V21.673a1.181,1.181,0,0,0-.816-1.3L221,19.194Z" />
        <path id="Path_7" data-name="Path 7" class="cls-1" d="M276.161,31.073q0-8.04,4.081-12.242a14.018,14.018,0,0,1,10.519-4.2q13.117,0,13.118,14.9a34.9,34.9,0,0,1-.181,3.6h-19.98q.242,4.534,2.222,6.847t6.3,2.312a24.131,24.131,0,0,0,9.1-2.176l1.995,4.957A26.067,26.067,0,0,1,291.456,48q-15.3-.03-15.3-16.927Zm7.617-3.083h13q0-7.98-6.136-7.98a6.269,6.269,0,0,0-4.731,1.98Q284.021,23.97,283.778,27.99Z" />
        <path id="Path_8" data-name="Path 8" class="cls-1" d="M323.5,13.814V2.418h38.207v11.4h-5.139l-1-5.381q-.121-.694-1-.7H346.23V41.562a1.669,1.669,0,0,0,.152.891q.15.2.846.257l6.8.514v4.02H331.6v-4.02l6.378-.423a1.224,1.224,0,0,0,.8-.287,1.568,1.568,0,0,0,.2-.952V7.738h-8.282q-.876,0-1,.695l-1,5.381h-5.2Z" />
        <path id="Path_9" data-name="Path 9" class="cls-1" d="M360.77,31.073q0-8.04,4.08-12.242a14.019,14.019,0,0,1,10.519-4.2q13.119,0,13.118,14.9a34.9,34.9,0,0,1-.181,3.6h-19.98q.242,4.534,2.222,6.847t6.3,2.312a24.127,24.127,0,0,0,9.1-2.176l1.995,4.957A26.067,26.067,0,0,1,376.064,48q-15.294-.03-15.294-16.927Zm7.617-3.083h13q0-7.98-6.136-7.98a6.265,6.265,0,0,0-4.73,1.98Q368.628,23.97,368.387,27.99Z" />
        <path id="Path_10" data-name="Path 10" class="cls-1" d="M391.394,47.244v-3.9l2.841-.544a3.05,3.05,0,0,0,1.844-1.118l8.494-10.157-8.494-10.518A3.224,3.224,0,0,0,394.6,19.95l-2.6-.7.635-4.02h14.3v4.02l-3.476.514,5.743,7.345,6.257-7.345-3.778-.514.635-4.02h12.7v4.02l-2.72.635a4.256,4.256,0,0,0-1.693,1.179l-7.98,9.4,8.917,11.153a2.817,2.817,0,0,0,1.662,1.088l3.114.575v3.959H410.437V43.285l3.476-.575L407.9,34.851,401.52,42.71l3.778.575v3.959h-13.9Z" />
        <path id="Path_11" data-name="Path 11" class="cls-1" d="M428.71,19.5V15.12a7.25,7.25,0,0,0,5.2-2.72,11.218,11.218,0,0,0,2.358-5.841h4.5V14.63q0,.6.513.6h8.978v5.078h-9.491V37.149a6.548,6.548,0,0,0,.967,4.08q.967,1.179,3.506,1.179a16.544,16.544,0,0,0,5.38-1.058l1.421,4.474A21.783,21.783,0,0,1,442.886,48q-4.836,0-7.027-2.176t-2.192-6.8V20.947c0-.4-.213-.518-.507-.7-1.012-.634-4.45-.741-4.45-.741Z" />
    </g>
    <g id="Group_2" data-name="Group 2">
        <path id="Path_12" data-name="Path 12" class="cls-2" d="M35.995,26.563a.67.67,0,0,0-.9-.707L.9,36.7A1.41,1.41,0,0,0,0,37.976V49.057a.669.669,0,0,0,.9.707L35.093,38.923a1.412,1.412,0,0,0,.9-1.279Z" />
        <path id="Path_13" data-name="Path 13" class="cls-3" d="M0,26.21a1.411,1.411,0,0,0,.9,1.279L35.1,38.332a.669.669,0,0,0,.9-.706V26.544a1.41,1.41,0,0,0-.9-1.278L.9,14.423a.668.668,0,0,0-.9.706V26.21Z" />
        <path id="Path_14" data-name="Path 14" class="cls-3" d="M35.995,3.793a.669.669,0,0,0-.9-.707L.9,13.927A1.411,1.411,0,0,0,0,15.206V26.287a.669.669,0,0,0,.9.707L35.093,16.152a1.412,1.412,0,0,0,.9-1.278V3.793Z" />
    </g>
</svg>